# xmcd
#
# Track frame offsets:
#	150
#	23466
#	47024
#	58469
#	75908
#	93369
#	109018
#	130215
#	150367
#	162628
#	175539
#	189297
#	206855
#	220635
#	238306
#	263024
#
# Disc length: 3890 seconds
#
# Revision: 0
# Processed by: cddbd v1.4PL0 Copyright (c) Steve Scherf et al.
# Submitted via: dBpowerAMP V4.0
#
DISCID=cc0f3010
DTITLE=Totta Näslund - Totta 5 - Turnén
DYEAR=2001
DGENRE=Blues
TTITLE0=Pale Blue Eyes
TTITLE1=Ride Johnny, Ride
TTITLE2=I'm Satisfied
TTITLE3=In My Time of Dyin'
TTITLE4=One Too Many Mornings
TTITLE5=Mil efter mil
TTITLE6=If The River Was Whiskey-You Havin' a Good Time
TTITLE7=Early Morning Rain
TTITLE8=Blues Run The Game
TTITLE9=Where Teardrops Fall
TTITLE10=Lost Highway
TTITLE11=Down The Road
TTITLE12=See That My Grave Is Kept Clean
TTITLE13=Between Trains
TTITLE14=Min lycka har vänt
TTITLE15=Tears of Rage
EXTD=
EXTT0=
EXTT1=
EXTT2=
EXTT3=
EXTT4=
EXTT5=
EXTT6=
EXTT7=
EXTT8=
EXTT9=
EXTT10=
EXTT11=
EXTT12=
EXTT13=
EXTT14=
EXTT15=
PLAYORDER=
